<svg width="16" height="16" viewBox="0 0 16 16" fill="none" xmlns="http://www.w3.org/2000/svg">
<path opacity="0.72" d="M7.49985 1.37988C6.09165 1.37988 4.71504 1.79746 3.54417 2.57982C2.37329 3.36217 1.46075 4.47417 0.921851 5.77518C0.382955 7.07619 0.241973 8.50777 0.516699 9.88892C0.791426 11.2701 1.46956 12.5387 2.46531 13.5345C3.46106 14.5302 4.72967 15.2083 6.11082 15.4831C7.49196 15.7578 8.92358 15.6168 10.2246 15.0779C11.5256 14.539 12.6375 13.6264 13.4199 12.4555C14.2023 11.2847 14.6198 9.90808 14.6198 8.49988C14.6198 6.61154 13.8697 4.80053 12.5344 3.46527C11.1991 2.13001 9.3882 1.37988 7.49985 1.37988V1.37988ZM10.9999 10.9999V8.99988H7.99985V11.9999H9.99985L7.49985 14.9999L4.99985 11.9999H6.99985V8.99988H3.99985V10.9999L0.999854 8.49988L3.99985 5.99988V7.99988H6.99985V4.99988H4.99985L7.49985 1.99988L9.99985 4.99988H7.99985V7.99988H10.9999V5.99988L13.9999 8.49988L10.9999 10.9999Z" fill="white"/>
</svg>
